<svg width="84" height="84" viewBox="0 0 84 84" fill="none" xmlns="http://www.w3.org/2000/svg">
<rect width="84" height="84" fill="white"/>
<path d="M18.7065 15C18.5502 14.5218 18.3443 14.0933 18.0886 13.7145C17.8377 13.331 17.537 13.0043 17.1866 12.7344C16.841 12.4645 16.448 12.2585 16.0076 12.1165C15.5673 11.9744 15.0843 11.9034 14.5588 11.9034C13.697 11.9034 12.9134 12.1259 12.2079 12.571C11.5024 13.0161 10.9413 13.6719 10.5247 14.5384C10.108 15.4048 9.89968 16.4678 9.89968 17.7273C9.89968 18.9867 10.1104 20.0497 10.5318 20.9162C10.9532 21.7827 11.5237 22.4384 12.2434 22.8835C12.9631 23.3286 13.7728 23.5511 14.6724 23.5511C15.5057 23.5511 16.2396 23.3736 16.8741 23.0185C17.5133 22.6586 18.0105 22.152 18.3656 21.4986C18.7254 20.8404 18.9054 20.0663 18.9054 19.1761L19.4451 19.2898H15.0701V17.7273H20.6099V19.2898C20.6099 20.4877 20.3542 21.5294 19.8429 22.4148C19.3362 23.3002 18.6355 23.9867 17.7406 24.4744C16.8504 24.9574 15.8277 25.1989 14.6724 25.1989C13.3845 25.1989 12.2529 24.8958 11.2775 24.2898C10.3069 23.6837 9.5493 22.822 9.00479 21.7045C8.46502 20.5871 8.19513 19.2614 8.19513 17.7273C8.19513 16.5767 8.34902 15.5421 8.65678 14.6236C8.96928 13.7003 9.40962 12.9143 9.97781 12.2656C10.546 11.617 11.2183 11.1198 11.9949 10.7741C12.7714 10.4285 13.626 10.2557 14.5588 10.2557C15.3258 10.2557 16.0408 10.3717 16.7037 10.6037C17.3713 10.831 17.9655 11.1553 18.4863 11.5767C19.0119 11.9934 19.4499 12.4929 19.8002 13.0753C20.1506 13.6529 20.3921 14.2945 20.5247 15H18.7065ZM31.5811 14.0909C31.4959 13.3712 31.1503 12.8125 30.5442 12.4148C29.9382 12.017 29.1948 11.8182 28.3141 11.8182C27.6702 11.8182 27.1067 11.9223 26.6238 12.1307C26.1455 12.339 25.7715 12.6255 25.5016 12.9901C25.2364 13.3546 25.1039 13.7689 25.1039 14.233C25.1039 14.6212 25.1962 14.955 25.3809 15.2344C25.5703 15.509 25.8117 15.7386 26.1053 15.9233C26.3989 16.1032 26.7066 16.2524 27.0286 16.3707C27.3506 16.4844 27.6465 16.5767 27.9164 16.6477L29.3936 17.0455C29.7724 17.1449 30.1938 17.2822 30.6578 17.4574C31.1266 17.6326 31.574 17.8717 32.0002 18.1747C32.431 18.473 32.7862 18.8565 33.0655 19.3253C33.3449 19.794 33.4846 20.3693 33.4846 21.0511C33.4846 21.8371 33.2786 22.5473 32.8667 23.1818C32.4595 23.8163 31.8629 24.3205 31.0769 24.6946C30.2956 25.0687 29.3463 25.2557 28.2289 25.2557C27.1872 25.2557 26.2852 25.0876 25.5229 24.7514C24.7653 24.4152 24.1687 23.9465 23.7331 23.3452C23.3023 22.7438 23.0584 22.0455 23.0016 21.25H24.8198C24.8671 21.7992 25.0518 22.2538 25.3738 22.6136C25.7005 22.9687 26.1124 23.2339 26.6096 23.4091C27.1114 23.5795 27.6512 23.6648 28.2289 23.6648C28.9012 23.6648 29.5049 23.5559 30.04 23.3381C30.575 23.1155 30.9988 22.8078 31.3113 22.4148C31.6238 22.017 31.78 21.553 31.78 21.0227C31.78 20.5398 31.6451 20.1468 31.3752 19.8438C31.1053 19.5407 30.7502 19.2945 30.3098 19.1051C29.8695 18.9157 29.3936 18.75 28.8823 18.608L27.0925 18.0966C25.9561 17.7699 25.0565 17.3035 24.3936 16.6974C23.7308 16.0914 23.3993 15.2983 23.3993 14.3182C23.3993 13.5038 23.6195 12.7936 24.0598 12.1875C24.5049 11.5767 25.1015 11.1032 25.8496 10.767C26.6025 10.4261 27.4429 10.2557 28.3709 10.2557C29.3084 10.2557 30.1417 10.4238 30.8709 10.7599C31.6001 11.0914 32.1777 11.5459 32.6039 12.1236C33.0347 12.7012 33.262 13.357 33.2857 14.0909H31.5811ZM36.3805 10.4545H38.4828L43.426 22.5284H43.5964L48.5396 10.4545H50.6419V25H48.9941V13.9489H48.8521L44.3066 25H42.7157L38.1703 13.9489H38.0282V25H36.3805V10.4545ZM62.128 14.0909C62.0428 13.3712 61.6971 12.8125 61.0911 12.4148C60.485 12.017 59.7417 11.8182 58.861 11.8182C58.217 11.8182 57.6536 11.9223 57.1706 12.1307C56.6924 12.339 56.3184 12.6255 56.0485 12.9901C55.7833 13.3546 55.6507 13.7689 55.6507 14.233C55.6507 14.6212 55.7431 14.955 55.9277 15.2344C56.1171 15.509 56.3586 15.7386 56.6522 15.9233C56.9457 16.1032 57.2535 16.2524 57.5755 16.3707C57.8974 16.4844 58.1934 16.5767 58.4632 16.6477L59.9405 17.0455C60.3193 17.1449 60.7407 17.2822 61.2047 17.4574C61.6735 17.6326 62.1209 17.8717 62.5471 18.1747C62.9779 18.473 63.333 18.8565 63.6124 19.3253C63.8918 19.794 64.0314 20.3693 64.0314 21.0511C64.0314 21.8371 63.8255 22.5473 63.4135 23.1818C63.0063 23.8163 62.4097 24.3205 61.6238 24.6946C60.8425 25.0687 59.8932 25.2557 58.7757 25.2557C57.7341 25.2557 56.8321 25.0876 56.0698 24.7514C55.3122 24.4152 54.7156 23.9465 54.28 23.3452C53.8491 22.7438 53.6053 22.0455 53.5485 21.25H55.3667C55.414 21.7992 55.5987 22.2538 55.9206 22.6136C56.2473 22.9687 56.6593 23.2339 57.1564 23.4091C57.6583 23.5795 58.1981 23.6648 58.7757 23.6648C59.4481 23.6648 60.0518 23.5559 60.5868 23.3381C61.1219 23.1155 61.5456 22.8078 61.8581 22.4148C62.1706 22.017 62.3269 21.553 62.3269 21.0227C62.3269 20.5398 62.1919 20.1468 61.9221 19.8438C61.6522 19.5407 61.2971 19.2945 60.8567 19.1051C60.4164 18.9157 59.9405 18.75 59.4292 18.608L57.6394 18.0966C56.503 17.7699 55.6034 17.3035 54.9405 16.6974C54.2776 16.0914 53.9462 15.2983 53.9462 14.3182C53.9462 13.5038 54.1664 12.7936 54.6067 12.1875C55.0518 11.5767 55.6484 11.1032 56.3965 10.767C57.1493 10.4261 57.9898 10.2557 58.9178 10.2557C59.8553 10.2557 60.6886 10.4238 61.4178 10.7599C62.147 11.0914 62.7246 11.5459 63.1507 12.1236C63.5816 12.7012 63.8089 13.357 63.8326 14.0909H62.128ZM66.1319 12.017V10.4545H77.041V12.017H72.4672V25H70.7058V12.017H66.1319ZM17.2985 49V34.4545H22.2132C23.3496 34.4545 24.2824 34.6487 25.0115 35.0369C25.7407 35.4205 26.2805 35.9484 26.6309 36.6207C26.9812 37.2931 27.1564 38.0578 27.1564 38.9148C27.1564 39.7718 26.9812 40.5317 26.6309 41.1946C26.2805 41.8575 25.7431 42.3783 25.0186 42.7571C24.2942 43.1312 23.3685 43.3182 22.2417 43.3182H18.2644V41.7273H22.1848C22.9614 41.7273 23.5864 41.6136 24.0598 41.3864C24.5381 41.1591 24.8837 40.8371 25.0968 40.4205C25.3146 39.9991 25.4235 39.4972 25.4235 38.9148C25.4235 38.3324 25.3146 37.8234 25.0968 37.3878C24.879 36.9522 24.531 36.616 24.0527 36.3793C23.5745 36.1378 22.9424 36.017 22.1564 36.017H19.0598V49H17.2985ZM24.1451 42.4659L27.7246 49H25.6792L22.1564 42.4659H24.1451ZM34.1788 49.2273C33.194 49.2273 32.3298 48.9929 31.5865 48.5241C30.8478 48.0554 30.2702 47.3996 29.8535 46.5568C29.4416 45.714 29.2356 44.7292 29.2356 43.6023C29.2356 42.4659 29.4416 41.474 29.8535 40.6264C30.2702 39.7789 30.8478 39.1207 31.5865 38.652C32.3298 38.1832 33.194 37.9489 34.1788 37.9489C35.1636 37.9489 36.0254 38.1832 36.764 38.652C37.5074 39.1207 38.0851 39.7789 38.497 40.6264C38.9136 41.474 39.122 42.4659 39.122 43.6023C39.122 44.7292 38.9136 45.714 38.497 46.5568C38.0851 47.3996 37.5074 48.0554 36.764 48.5241C36.0254 48.9929 35.1636 49.2273 34.1788 49.2273ZM34.1788 47.7216C34.9269 47.7216 35.5424 47.5298 36.0254 47.1463C36.5083 46.7628 36.8658 46.2585 37.0978 45.6335C37.3298 45.0085 37.4458 44.3314 37.4458 43.6023C37.4458 42.8731 37.3298 42.1937 37.0978 41.5639C36.8658 40.9342 36.5083 40.4252 36.0254 40.0369C35.5424 39.6487 34.9269 39.4545 34.1788 39.4545C33.4307 39.4545 32.8152 39.6487 32.3322 40.0369C31.8493 40.4252 31.4918 40.9342 31.2598 41.5639C31.0278 42.1937 30.9118 42.8731 30.9118 43.6023C30.9118 44.3314 31.0278 45.0085 31.2598 45.6335C31.4918 46.2585 31.8493 46.7628 32.3322 47.1463C32.8152 47.5298 33.4307 47.7216 34.1788 47.7216ZM46.1124 49.2273C45.1275 49.2273 44.2634 48.9929 43.5201 48.5241C42.7814 48.0554 42.2038 47.3996 41.7871 46.5568C41.3752 45.714 41.1692 44.7292 41.1692 43.6023C41.1692 42.4659 41.3752 41.474 41.7871 40.6264C42.2038 39.7789 42.7814 39.1207 43.5201 38.652C44.2634 38.1832 45.1275 37.9489 46.1124 37.9489C47.0972 37.9489 47.959 38.1832 48.6976 38.652C49.441 39.1207 50.0186 39.7789 50.4306 40.6264C50.8472 41.474 51.0556 42.4659 51.0556 43.6023C51.0556 44.7292 50.8472 45.714 50.4306 46.5568C50.0186 47.3996 49.441 48.0554 48.6976 48.5241C47.959 48.9929 47.0972 49.2273 46.1124 49.2273ZM46.1124 47.7216C46.8605 47.7216 47.476 47.5298 47.959 47.1463C48.4419 46.7628 48.7994 46.2585 49.0314 45.6335C49.2634 45.0085 49.3794 44.3314 49.3794 43.6023C49.3794 42.8731 49.2634 42.1937 49.0314 41.5639C48.7994 40.9342 48.4419 40.4252 47.959 40.0369C47.476 39.6487 46.8605 39.4545 46.1124 39.4545C45.3643 39.4545 44.7488 39.6487 44.2658 40.0369C43.7828 40.4252 43.4254 40.9342 43.1934 41.5639C42.9614 42.1937 42.8453 42.8731 42.8453 43.6023C42.8453 44.3314 42.9614 45.0085 43.1934 45.6335C43.4254 46.2585 43.7828 46.7628 44.2658 47.1463C44.7488 47.5298 45.3643 47.7216 46.1124 47.7216ZM53.6142 49V38.0909H55.2335V39.7955H55.3755C55.6028 39.2131 55.9698 38.7609 56.4764 38.4389C56.983 38.1122 57.5914 37.9489 58.3017 37.9489C59.0214 37.9489 59.6203 38.1122 60.0985 38.4389C60.5815 38.7609 60.9579 39.2131 61.2278 39.7955H61.3414C61.6208 39.232 62.0398 38.7846 62.5985 38.4531C63.1573 38.117 63.8272 37.9489 64.6085 37.9489C65.5839 37.9489 66.3817 38.2543 67.002 38.8651C67.6222 39.4711 67.9324 40.4157 67.9324 41.6989V49H66.2562V41.6989C66.2562 40.8939 66.036 40.3187 65.5957 39.973C65.1554 39.6274 64.6369 39.4545 64.0403 39.4545C63.2733 39.4545 62.679 39.6866 62.2576 40.1506C61.8362 40.6098 61.6255 41.1922 61.6255 41.8977V49H59.921V41.5284C59.921 40.9081 59.7198 40.4086 59.3173 40.0298C58.9148 39.6463 58.3964 39.4545 57.7619 39.4545C57.3263 39.4545 56.9191 39.5705 56.5403 39.8026C56.1663 40.0346 55.8632 40.3565 55.6312 40.7685C55.4039 41.1757 55.2903 41.6468 55.2903 42.1818V49H53.6142ZM14.4176 73V58.4545H23.1392V60.017H16.179V64.9318H22.4858V66.4943H16.179V73H14.4176ZM25.9286 73V62.0909H27.6048V73H25.9286ZM26.7809 60.2727C26.4542 60.2727 26.1725 60.1615 25.9357 59.9389C25.7037 59.7164 25.5877 59.4489 25.5877 59.1364C25.5877 58.8239 25.7037 58.5563 25.9357 58.3338C26.1725 58.1113 26.4542 58 26.7809 58C27.1076 58 27.387 58.1113 27.619 58.3338C27.8557 58.5563 27.9741 58.8239 27.9741 59.1364C27.9741 59.4489 27.8557 59.7164 27.619 59.9389C27.387 60.1615 27.1076 60.2727 26.7809 60.2727ZM32.3509 66.4375V73H30.6747V62.0909H32.294V63.7955H32.4361C32.6918 63.2415 33.08 62.7964 33.6009 62.4602C34.1217 62.1193 34.794 61.9489 35.6179 61.9489C36.3565 61.9489 37.0028 62.1004 37.5568 62.4034C38.1108 62.7017 38.5417 63.1562 38.8494 63.767C39.1572 64.3731 39.3111 65.1402 39.3111 66.0682V73H37.6349V66.1818C37.6349 65.3248 37.4124 64.6572 36.9673 64.179C36.5223 63.696 35.9115 63.4545 35.1349 63.4545C34.5999 63.4545 34.1217 63.5705 33.7003 63.8026C33.2836 64.0346 32.9545 64.3731 32.7131 64.8182C32.4716 65.2633 32.3509 65.803 32.3509 66.4375ZM46.4933 73.2273C45.5842 73.2273 44.7816 72.9976 44.0856 72.5384C43.3896 72.0743 42.8451 71.4209 42.4521 70.5781C42.0591 69.7306 41.8626 68.7292 41.8626 67.5739C41.8626 66.428 42.0591 65.4337 42.4521 64.5909C42.8451 63.7481 43.3919 63.0971 44.0927 62.6378C44.7934 62.1785 45.6031 61.9489 46.5217 61.9489C47.2319 61.9489 47.793 62.0672 48.2049 62.304C48.6216 62.536 48.9388 62.8011 49.1566 63.0994C49.3791 63.393 49.552 63.6345 49.6751 63.8239H49.8171V58.4545H51.4933V73H49.8739V71.3239H49.6751C49.552 71.5227 49.3768 71.7737 49.1495 72.0767C48.9222 72.375 48.5979 72.6425 48.1765 72.8793C47.7551 73.1113 47.194 73.2273 46.4933 73.2273ZM46.7205 71.7216C47.3929 71.7216 47.9611 71.5464 48.4251 71.196C48.8891 70.8409 49.2418 70.3509 49.4833 69.7259C49.7248 69.0961 49.8455 68.3693 49.8455 67.5455C49.8455 66.7311 49.7272 66.0185 49.4904 65.4077C49.2537 64.7921 48.9033 64.3139 48.4393 63.973C47.9753 63.6274 47.4023 63.4545 46.7205 63.4545C46.0103 63.4545 45.4184 63.6368 44.945 64.0014C44.4762 64.3613 44.1235 64.8513 43.8867 65.4716C43.6547 66.0871 43.5387 66.7784 43.5387 67.5455C43.5387 68.322 43.6571 69.0275 43.8938 69.6619C44.1353 70.2917 44.4904 70.7936 44.9592 71.1676C45.4326 71.5369 46.0198 71.7216 46.7205 71.7216ZM59.3697 73.2273C58.3185 73.2273 57.4118 72.9953 56.6495 72.5312C55.8919 72.0625 55.3072 71.4091 54.8952 70.571C54.488 69.7282 54.2844 68.7481 54.2844 67.6307C54.2844 66.5133 54.488 65.5284 54.8952 64.6761C55.3072 63.8191 55.8801 63.1515 56.614 62.6733C57.3526 62.1903 58.2144 61.9489 59.1992 61.9489C59.7674 61.9489 60.3285 62.0436 60.8825 62.233C61.4364 62.4223 61.9407 62.7301 62.3952 63.1562C62.8498 63.5777 63.212 64.1364 63.4819 64.8324C63.7518 65.5284 63.8867 66.3854 63.8867 67.4034V68.1136H55.4776V66.6648H62.1822C62.1822 66.0492 62.0591 65.5 61.8129 65.017C61.5714 64.5341 61.2257 64.1529 60.7759 63.8736C60.3308 63.5942 59.8053 63.4545 59.1992 63.4545C58.5316 63.4545 57.954 63.6203 57.4663 63.9517C56.9833 64.2784 56.6116 64.7045 56.3512 65.2301C56.0908 65.7557 55.9606 66.3191 55.9606 66.9205V67.8864C55.9606 68.7102 56.1026 69.4086 56.3867 69.9815C56.6755 70.5497 57.0756 70.983 57.587 71.2812C58.0984 71.5748 58.6926 71.7216 59.3697 71.7216C59.81 71.7216 60.2077 71.66 60.5629 71.5369C60.9227 71.4091 61.2328 71.2197 61.4933 70.9688C61.7537 70.7131 61.9549 70.3958 62.0969 70.017L63.7163 70.4716C63.5458 71.0208 63.2594 71.5038 62.8569 71.9205C62.4544 72.3324 61.9573 72.6544 61.3654 72.8864C60.7736 73.1136 60.1083 73.2273 59.3697 73.2273ZM66.4364 73V62.0909H68.0558V63.7386H68.1694C68.3683 63.1989 68.7281 62.7609 69.2489 62.4247C69.7698 62.0885 70.3569 61.9205 71.0103 61.9205C71.1334 61.9205 71.2873 61.9228 71.4719 61.9276C71.6566 61.9323 71.7963 61.9394 71.891 61.9489V63.6534C71.8342 63.6392 71.704 63.6179 71.5004 63.5895C71.3015 63.5563 71.0908 63.5398 70.8683 63.5398C70.338 63.5398 69.8645 63.651 69.4478 63.8736C69.0359 64.0914 68.7092 64.3944 68.4677 64.7827C68.2309 65.1662 68.1126 65.6042 68.1126 66.0966V73H66.4364Z" fill="black"/>
</svg>
